<svg width="780" height="280" viewBox="0 0 780 280" fill="none" xmlns="http://www.w3.org/2000/svg">
<mask id="mask0_16_192" style="mask-type:alpha" maskUnits="userSpaceOnUse" x="0" y="0" width="780" height="280">
<rect width="780" height="280" rx="20" fill="#152235"/>
</mask>
<g mask="url(#mask0_16_192)">
<rect width="780" height="280" rx="20" fill="#152235"/>
<path d="M493.405 96.8947C494.23 98.657 496.426 99.6614 498.309 99.1381C503.957 97.5676 503.957 97.5676 503.957 97.5676C508.959 96.1772 509.093 80.7503 504.256 63.1104L488.938 7.2471C488.595 5.99692 487.26 4.98315 485.957 4.98315H481.305C477.432 4.98315 472.889 8.97241 471.157 13.8928C471.157 13.8928 474.293 4.98309 471.157 13.8928C469.425 18.8137 465.433 21.0402 462.242 18.8654C457.784 15.126 445.068 9.21414 433.837 5.66132C422.604 2.11081 410.431 0.334412 397.317 0.334412C380.628 -1.81219 349.889 6.5994 328.658 19.1229C313.142 25.8566 290.774 48.5336 278.698 69.7732C266.622 91.0157 260.584 114.743 260.584 140.955C256.841 166.049 271.491 207.327 293.306 233.152C319.665 264.272 353.946 279.831 396.148 279.831C409.221 280.915 432.766 276.666 448.738 270.341C459.429 267.382 480.097 254.2 494.9 240.9C501.261 236.093 512.947 222.565 521 210.683C521 210.683 521 210.683 513.209 205.357C508.906 202.415 502.858 203.461 499.701 207.693C495.957 214.528 480.751 227.716 465.739 237.15C462.167 239.35 455.951 242.131 451.855 243.361C447.425 244.69 443.033 245.355 438.68 245.355C433.277 246.051 425.121 243.322 420.462 239.259C415.802 235.195 413.473 230.087 413.473 223.935C413.473 222.796 413.548 221.39 413.626 220.554C413.668 220.093 418.387 219.141 424.166 218.429C433.496 219.563 451.587 208.383 464.573 193.457C477.558 178.531 484.051 159.865 484.051 137.458C485.23 126.372 480.61 107.626 473.732 95.5858C470.222 86.9026 457.029 73.7672 444.265 66.2473C432.493 59.3364 419.193 55.8792 404.366 55.8792C393.735 54.6478 374.613 59.4684 361.657 66.6463C352.142 70.4619 338.667 83.6226 331.56 96.0417C324.451 108.461 320.897 122.494 320.897 138.141C318.593 153.721 327.611 178.665 341.037 193.856C354.464 209.048 371.582 217.669 381.987 218.694C387.733 219.261 392.34 220.332 392.277 221.087C392.163 222.454 392.048 224.428 392.048 225.644C391.504 229.993 393.632 237.645 396.802 242.735C398.485 246.507 404.307 251.659 409.807 254.242C411.098 254.831 412.413 255.302 413.069 255.544C413.431 255.678 413.109 255.841 412.349 255.909C410.974 256.033 408.229 256.201 405.497 256.201C393.047 257.888 370.112 251.292 354.271 241.469C342.738 236.459 325.865 217.626 316.582 199.404C307.296 181.182 302.655 160.439 302.655 137.178C301.085 121.545 307.233 94.2054 316.388 76.1133C321.442 62.7332 337.487 44.2902 352.226 34.9206C366.962 25.551 383.098 20.8659 400.628 20.8659C410.87 19.716 429.227 24.2251 441.628 30.9377C450.474 34.5299 464.384 46.7572 472.695 58.2482C477.76 65.3515 485.161 79.2971 493.405 96.8947ZM402.703 208.895C395.296 209.834 382.343 206.161 373.771 200.692C367.543 197.929 358.368 187.344 353.279 177.051C348.189 166.759 345.646 154.206 345.646 139.394C344.758 128.37 348.227 110.873 353.393 100.314C356.203 92.5 365.429 81.7623 374 76.3309C382.572 70.9008 392.83 68.1845 404.771 68.1845C412.792 67.3514 425.436 70.6162 433.012 75.4761C438.5 77.7577 446.673 87.8577 451.267 98.0357C456.623 109.885 459.303 122.95 459.303 137.23C460.221 146.897 456.623 164.062 451.267 175.569C448.232 184.183 439.134 195.508 430.946 200.863C422.756 206.218 413.341 208.895 402.703 208.895Z" fill="url(#paint0_linear_16_192)"/>
<g filter="url(#filter0_d_16_192)">
<circle cx="-14.0162" cy="254.141" r="122.317" transform="rotate(69.369 -14.0162 254.141)" stroke="url(#paint1_linear_16_192)" stroke-width="16" shape-rendering="crispEdges"/>
</g>
<g filter="url(#filter1_d_16_192)">
<circle cx="740.876" cy="-10.1238" r="122.317" transform="rotate(-110.631 740.876 -10.1238)" stroke="url(#paint2_linear_16_192)" stroke-width="16" shape-rendering="crispEdges"/>
</g>
</g>
<defs>
<filter id="filter0_d_16_192" x="-264.368" y="-6.21072" width="500.704" height="500.704" filterUnits="userSpaceOnUse" color-interpolation-filters="sRGB">
<feFlood flood-opacity="0" result="BackgroundImageFix"/>
<feColorMatrix in="SourceAlpha" type="matrix" values="0 0 0 0 0 0 0 0 0 0 0 0 0 0 0 0 0 0 127 0" result="hardAlpha"/>
<feOffset dy="-10"/>
<feGaussianBlur stdDeviation="60"/>
<feComposite in2="hardAlpha" operator="out"/>
<feColorMatrix type="matrix" values="0 0 0 0 0.184314 0 0 0 0 0.623529 0 0 0 0 0.956863 0 0 0 0.25 0"/>
<feBlend mode="normal" in2="BackgroundImageFix" result="effect1_dropShadow_16_192"/>
<feBlend mode="normal" in="SourceGraphic" in2="effect1_dropShadow_16_192" result="shape"/>
</filter>
<filter id="filter1_d_16_192" x="490.524" y="-250.476" width="500.704" height="500.704" filterUnits="userSpaceOnUse" color-interpolation-filters="sRGB">
<feFlood flood-opacity="0" result="BackgroundImageFix"/>
<feColorMatrix in="SourceAlpha" type="matrix" values="0 0 0 0 0 0 0 0 0 0 0 0 0 0 0 0 0 0 127 0" result="hardAlpha"/>
<feOffset dy="10"/>
<feGaussianBlur stdDeviation="60"/>
<feComposite in2="hardAlpha" operator="out"/>
<feColorMatrix type="matrix" values="0 0 0 0 0.184314 0 0 0 0 0.623529 0 0 0 0 0.956863 0 0 0 0.25 0"/>
<feBlend mode="normal" in2="BackgroundImageFix" result="effect1_dropShadow_16_192"/>
<feBlend mode="normal" in="SourceGraphic" in2="effect1_dropShadow_16_192" result="shape"/>
</filter>
<linearGradient id="paint0_linear_16_192" x1="540.5" y1="317.5" x2="339.5" y2="-4.48129e-06" gradientUnits="userSpaceOnUse">
<stop stop-color="#263955"/>
<stop offset="1" stop-color="#17273F" stop-opacity="0.52"/>
</linearGradient>
<linearGradient id="paint1_linear_16_192" x1="-45.5094" y1="307.354" x2="-162.794" y2="254.141" gradientUnits="userSpaceOnUse">
<stop stop-color="#2F9FF4"/>
<stop offset="1" stop-color="#1F3A4F"/>
</linearGradient>
<linearGradient id="paint2_linear_16_192" x1="709.383" y1="43.0889" x2="592.098" y2="-10.1238" gradientUnits="userSpaceOnUse">
<stop stop-color="#2F9FF4"/>
<stop offset="1" stop-color="#1F3A4F"/>
</linearGradient>
</defs>
</svg>
